<svg width="48" height="41" viewBox="0 0 48 41" fill="none" xmlns="http://www.w3.org/2000/svg">
<circle cx="37.5" cy="10.5" r="9.5" stroke="white" stroke-width="2"/>
<circle cx="10.5" cy="10.5" r="9.5" stroke="white" stroke-width="2"/>
<circle cx="13.5" cy="10.5" r="6.5" fill="white" stroke="white" stroke-width="2"/>
<path d="M47 10.5C47 14.156 44.2498 17 41 17C37.7502 17 35 14.156 35 10.5C35 6.84405 37.7502 4 41 4C44.2498 4 47 6.84405 47 10.5Z" fill="white" stroke="white" stroke-width="2"/>
<path d="M4.762 38.638C4.036 38.6087 3.47133 38.407 3.068 38.033C2.66467 37.6663 2.463 37.208 2.463 36.658C2.463 36.284 2.58033 35.9503 2.815 35.657C3.04967 35.3563 3.37233 35.1253 3.783 34.964C4.19367 34.7953 4.65933 34.7257 5.18 34.755C5.268 34.7623 5.35233 34.7697 5.433 34.777C5.521 34.777 5.60533 34.7843 5.686 34.799C5.664 34.3223 5.63833 33.8163 5.609 33.281C5.57967 32.7383 5.55033 32.1993 5.521 31.664C5.499 31.1287 5.477 30.63 5.455 30.168C5.44033 29.706 5.433 29.3173 5.433 29.002H7.116C7.10133 29.2293 7.094 29.53 7.094 29.904C7.10133 30.278 7.10867 30.685 7.116 31.125C7.41667 31.0957 7.743 31.0553 8.095 31.004C8.447 30.9453 8.788 30.8793 9.118 30.806C9.448 30.7327 9.73033 30.6593 9.965 30.586C9.97233 30.7107 9.98333 30.872 9.998 31.07C10.02 31.2607 10.0457 31.4513 10.075 31.642C10.1043 31.8327 10.1337 31.9867 10.163 32.104C9.93567 32.1773 9.646 32.2433 9.294 32.302C8.94933 32.3607 8.59 32.412 8.216 32.456C7.84933 32.5 7.50467 32.533 7.182 32.555C7.204 33.017 7.226 33.468 7.248 33.908C7.27 34.348 7.292 34.7513 7.314 35.118C7.93733 35.3013 8.52033 35.525 9.063 35.789C9.60567 36.0457 10.108 36.3097 10.57 36.581C10.4453 36.6837 10.3097 36.823 10.163 36.999C10.0237 37.175 9.89533 37.3547 9.778 37.538C9.66067 37.7213 9.57633 37.8753 9.525 38C9.20233 37.7507 8.85767 37.516 8.491 37.296C8.13167 37.076 7.765 36.8853 7.391 36.724C7.369 37.1053 7.26267 37.4463 7.072 37.747C6.88867 38.0403 6.60633 38.2677 6.225 38.429C5.851 38.5903 5.36333 38.66 4.762 38.638ZM4.817 37.098C5.13967 37.1273 5.37433 37.087 5.521 36.977C5.675 36.8597 5.752 36.702 5.752 36.504C5.752 36.46 5.74833 36.4123 5.741 36.361C5.741 36.3097 5.741 36.2583 5.741 36.207C5.60167 36.1777 5.466 36.1593 5.334 36.152C5.202 36.1373 5.07367 36.13 4.949 36.13C4.32567 36.13 4.014 36.2913 4.014 36.614C4.014 36.768 4.08 36.8817 4.212 36.955C4.344 37.021 4.54567 37.0687 4.817 37.098ZM18.523 38.88C18.3837 38.6013 18.1967 38.286 17.962 37.934C17.7347 37.5747 17.4817 37.208 17.203 36.834C16.9243 36.46 16.642 36.1007 16.356 35.756C16.07 35.404 15.806 35.0923 15.564 34.821C15.322 34.5497 15.1203 34.3443 14.959 34.205C14.7023 33.9703 14.574 33.754 14.574 33.556C14.574 33.358 14.6877 33.1673 14.915 32.984C15.091 32.8373 15.3037 32.643 15.553 32.401C15.8023 32.1517 16.0663 31.8767 16.345 31.576C16.631 31.268 16.9097 30.949 17.181 30.619C17.4523 30.289 17.698 29.9663 17.918 29.651C18.138 29.3283 18.3103 29.035 18.435 28.771L19.986 29.827C19.854 29.9957 19.6817 30.201 19.469 30.443C19.2563 30.6777 19.0217 30.9307 18.765 31.202C18.5157 31.4733 18.2627 31.7447 18.006 32.016C17.7567 32.28 17.5183 32.5293 17.291 32.764C17.0637 32.9913 16.873 33.182 16.719 33.336C16.6457 33.4093 16.609 33.4863 16.609 33.567C16.6163 33.6477 16.6677 33.7357 16.763 33.831C16.9023 33.963 17.0857 34.161 17.313 34.425C17.5477 34.6817 17.8007 34.9713 18.072 35.294C18.3433 35.6167 18.611 35.943 18.875 36.273C19.1463 36.603 19.392 36.911 19.612 37.197C19.832 37.483 20.0043 37.7177 20.129 37.901C19.9677 37.967 19.7843 38.055 19.579 38.165C19.3737 38.275 19.1757 38.3923 18.985 38.517C18.7943 38.6417 18.6403 38.7627 18.523 38.88ZM23.979 38.968C23.9057 38.7333 23.7993 38.4767 23.66 38.198C23.528 37.9267 23.3887 37.703 23.242 37.527C24.1807 37.4317 24.936 37.1897 25.508 36.801C26.0873 36.405 26.4283 35.8807 26.531 35.228H24.848V28.936H32.042V35.228H30.447V36.955C30.447 37.065 30.4727 37.142 30.524 37.186C30.5827 37.23 30.6927 37.252 30.854 37.252H31.536C31.7267 37.252 31.8733 37.2227 31.976 37.164C32.0787 37.1053 32.152 36.988 32.196 36.812C32.2473 36.636 32.2877 36.3757 32.317 36.031C32.4343 36.0897 32.5847 36.1557 32.768 36.229C32.9513 36.3023 33.142 36.372 33.34 36.438C33.538 36.4967 33.7103 36.5443 33.857 36.581C33.7763 37.1677 33.67 37.6223 33.538 37.945C33.406 38.2603 33.219 38.4767 32.977 38.594C32.7423 38.7113 32.4197 38.77 32.009 38.77H30.183C29.6697 38.77 29.3067 38.693 29.094 38.539C28.8887 38.3923 28.786 38.1393 28.786 37.78V35.228H28.137C28.0563 36.152 27.6787 36.9403 27.004 37.593C26.3293 38.2383 25.321 38.6967 23.979 38.968ZM26.553 33.853H30.337V33.38H26.553V33.853ZM26.553 32.313H30.337V31.851H26.553V32.313ZM26.553 30.784H30.337V30.322H26.553V30.784ZM39.797 38.506C39.1663 38.506 38.6457 38.4217 38.235 38.253C37.8243 38.0843 37.52 37.857 37.322 37.571C37.124 37.285 37.025 36.966 37.025 36.614C37.025 36.2693 37.1057 35.976 37.267 35.734C37.4357 35.4847 37.6557 35.294 37.927 35.162C38.2057 35.03 38.5063 34.964 38.829 34.964C39.2397 34.964 39.588 35.0447 39.874 35.206C40.1673 35.36 40.4057 35.569 40.589 35.833C40.7723 36.097 40.9043 36.3867 40.985 36.702C41.3957 36.416 41.601 35.9833 41.601 35.404C41.601 35.1253 41.5313 34.8723 41.392 34.645C41.2527 34.4103 41.0547 34.2233 40.798 34.084C40.5413 33.9447 40.2407 33.875 39.896 33.875C39.4047 33.875 38.994 33.93 38.664 34.04C38.334 34.1427 38.0407 34.3077 37.784 34.535C37.6447 34.6523 37.4687 34.8027 37.256 34.986C37.0433 35.162 36.8417 35.327 36.651 35.481L35.529 34.293C35.837 34.117 36.167 33.897 36.519 33.633C36.8783 33.3617 37.2413 33.061 37.608 32.731C37.9747 32.401 38.3267 32.06 38.664 31.708C39.0013 31.3487 39.3093 30.993 39.588 30.641C39.258 30.707 38.9207 30.773 38.576 30.839C38.2387 30.8977 37.9197 30.9453 37.619 30.982C37.3183 31.0187 37.0653 31.0443 36.86 31.059L36.563 29.519C36.7537 29.5337 36.9993 29.5337 37.3 29.519C37.6007 29.5043 37.9233 29.4823 38.268 29.453C38.62 29.4163 38.9647 29.376 39.302 29.332C39.6393 29.2807 39.94 29.2293 40.204 29.178C40.468 29.1193 40.666 29.0607 40.798 29.002L42.041 29.816C41.7917 30.2853 41.4617 30.773 41.051 31.279C40.6403 31.785 40.1967 32.2763 39.72 32.753C39.8007 32.7237 39.8887 32.7053 39.984 32.698C40.0867 32.6833 40.1893 32.676 40.292 32.676C40.9153 32.676 41.4507 32.7897 41.898 33.017C42.3527 33.2443 42.701 33.5633 42.943 33.974C43.1923 34.3847 43.317 34.8613 43.317 35.404C43.317 35.976 43.174 36.4967 42.888 36.966C42.602 37.4353 42.195 37.8093 41.667 38.088C41.1463 38.3667 40.523 38.506 39.797 38.506ZM39.434 37.021H39.566C39.5147 36.801 39.4303 36.6213 39.313 36.482C39.1957 36.3427 39.0343 36.273 38.829 36.273C38.7557 36.273 38.686 36.295 38.62 36.339C38.554 36.3757 38.521 36.4453 38.521 36.548C38.521 36.6653 38.587 36.768 38.719 36.856C38.8583 36.9367 39.0967 36.9917 39.434 37.021Z" fill="white"/>
</svg>
